<svg fill="none" viewBox="0 0 84 10" xmlns="http://www.w3.org/2000/svg"><rect width="84" height="10" fill="white"/><path fill="#0a0a0a" d="M11.88 4.66c1.9-.42 3.34-1.68 3.24-3.17C15.02 0 12.52 0 12.52 0H4.58L0 9.99l7.77-.07c3.96.12 5.82-2.4 5.85-3.68.02-1.28-1.74-1.58-1.74-1.58ZM9.5 6.8c-.25.76-1.3 1.01-1.8 1.04l-2.68.06.93-2.08s2.38-.02 2.72.02c.35.03 1.08.2.83.96Zm1.3-3.92c-.23.67-.8.98-1.66 1.03-.86.05-2.3.05-2.3.05l.86-1.94s2.12 0 2.38.04c.26.04.96.16.73.82Zm10.38-.64 6.85.01L29.05.01H18.12l-4.6 9.97h10.96l1.02-2.22h-6.87l.92-2h6.34l.93-2.05H20.5l.68-1.47Zm61.13.01L83.33.01H72.4l-4.6 9.97h10.96l1.02-2.22h-6.87l.92-2h6.35l.92-2.05h-6.32l.68-1.47 6.85.01ZM39.59 6.7l-3.04-.81s-1.17 1.85-3.03 1.85c0 0-1.64.29-1.98-.79a.57.57 0 0 1-.03-.13c-.1-1.02 1.03-3.66 3.06-4.35 1.87-.66 2.98.12 2.9 1.14l3.75-.57S41.66.2 37.58.05c-4.09-.15-7.18 1.26-8.91 3.9-1.73 2.64-1.3 4.65.23 5.43 1.53.77 4.06.63 4.98.5.9-.12 3.31-.28 5.7-3.18ZM47.58.01l-9.56 9.97h4.15l1.37-1.65h4.63l-.1 1.66h4.22L52.01 0l-4.43.01Zm.6 6.21-2.86.02 3.09-3.52-.22 3.5ZM66.83.03l-2.56 5.5L61.93.02h-3.86l-4.62 9.97 3.84.02 2.52-5.46 2.4 5.45h3.88L70.68.03h-3.85Z"/></svg>