<svg width="148" height="20" viewBox="0 0 148 20" fill="none" xmlns="http://www.w3.org/2000/svg">
<path fill-rule="evenodd" clip-rule="evenodd" d="M145.837 13.1441C145.553 12.9744 145.242 12.8889 144.903 12.8889C144.586 12.8889 144.317 12.9562 144.096 13.0901C143.876 13.2247 143.766 13.3929 143.766 13.5955C143.766 13.7329 143.809 13.8458 143.893 13.9341C143.978 14.0224 144.125 14.1094 144.335 14.1942C144.545 14.2797 144.856 14.3743 145.269 14.4788C145.804 14.6099 146.254 14.7487 146.619 14.8959C146.985 15.0431 147.307 15.2737 147.584 15.5878C147.861 15.9019 148 16.3211 148 16.844C148 17.3284 147.865 17.7539 147.594 18.1199C147.323 18.4865 146.946 18.7697 146.462 18.9688C145.978 19.1686 145.425 19.2681 144.802 19.2681C144.03 19.2681 143.367 19.1048 142.812 18.7774C142.257 18.4508 141.847 18.0091 141.583 17.4525L143.055 16.5005C143.435 17.2464 144.02 17.6193 144.812 17.6193C145.198 17.6193 145.504 17.5591 145.731 17.4378C145.958 17.3172 146.071 17.1518 146.071 16.9422C146.071 16.7985 146.03 16.6772 145.949 16.579C145.868 16.4809 145.721 16.3877 145.507 16.2993C145.294 16.211 144.984 16.115 144.578 16.0098C144.03 15.8661 143.575 15.7203 143.213 15.5731C142.851 15.4259 142.531 15.1938 142.253 14.8763C141.976 14.5594 141.837 14.1423 141.837 13.625C141.837 13.1672 141.974 12.7564 142.248 12.3933C142.522 12.0301 142.895 11.7476 143.365 11.5443C143.836 11.3417 144.355 11.2401 144.924 11.2401C145.662 11.2401 146.289 11.402 146.807 11.7259C147.325 12.0498 147.703 12.4606 147.939 12.9576L146.528 13.8703C146.352 13.5563 146.122 13.3144 145.837 13.1441ZM140.385 16.2257L142.131 19.1307H139.918L138.517 16.53H137.43V19.1307H135.542V11.3775H138.781C139.688 11.3775 140.404 11.6053 140.928 12.0596C141.453 12.5145 141.715 13.1441 141.715 13.9488C141.715 14.4858 141.601 14.9485 141.37 15.3375C141.14 15.7273 140.811 16.0231 140.385 16.2257ZM139.446 13.2569C139.22 13.1034 138.906 13.0263 138.507 13.0263H137.43V14.8714H138.507C138.906 14.8714 139.22 14.795 139.446 14.6407C139.673 14.4872 139.786 14.2566 139.786 13.9488C139.786 13.6418 139.673 13.4111 139.446 13.2569ZM129.765 11.3775H135.217V13.0263H131.653V14.3807H135.024V16.0294H131.653V17.4819H135.339V19.1307H129.765V11.3775ZM127.47 19.1307H125.581V13.0852H123.538L122.18 13.9783C121.761 13.2913 121.213 12.9478 120.535 12.9478C119.899 12.9478 119.413 13.149 119.078 13.5514C118.743 13.9537 118.576 14.5082 118.576 15.2149C118.576 15.9411 118.747 16.5138 119.088 16.9324C119.431 17.3516 119.913 17.5605 120.535 17.5605C120.88 17.5605 121.187 17.477 121.454 17.3102C121.722 17.1434 121.964 16.8833 122.18 16.53L123.673 17.5114C123.368 18.0484 122.95 18.4753 122.419 18.7921C121.888 19.1097 121.26 19.2681 120.535 19.2681C119.771 19.2681 119.093 19.0999 118.505 18.7627C117.916 18.4262 117.457 17.9502 117.129 17.3347C116.801 16.7199 116.636 16.0133 116.636 15.2149C116.636 14.4297 116.799 13.7364 117.124 13.1342C117.449 12.5328 117.906 12.0666 118.494 11.7357C119.083 11.4055 119.764 11.2401 120.535 11.2401C121.26 11.2401 121.888 11.3992 122.419 11.7161C122.797 11.9425 123.115 12.2264 123.378 12.5629V11.3775H129.673V13.0852H127.47V19.1307ZM115.083 19.1307L114.504 17.531H111.682L111.103 19.1307H109.854H109.103H107.641L106.239 16.53H105.153V19.1307H103.427H103.264H101.427L100.848 17.531H98.0253L97.4466 19.1307H95.6088H95.4464H93.7203V15.892H90.4915V19.1307H88.603V11.3775H90.4915V14.1844H93.7203V11.3775H95.6088V18.715L98.4721 11.3775H100.401L103.264 18.715V11.3775H106.503C107.411 11.3775 108.126 11.6053 108.651 12.0596C109.176 12.5145 109.438 13.1441 109.438 13.9488C109.438 14.4858 109.323 14.9485 109.092 15.3375C108.863 15.7273 108.534 16.0231 108.108 16.2257L109.398 18.3729L112.128 11.3775H114.057L117.083 19.1307H115.083ZM99.4671 13.7525H99.4062L98.6548 15.8233H100.218L99.4671 13.7525ZM107.168 13.2569C106.942 13.1034 106.629 13.0263 106.229 13.0263H105.153V14.8714H106.229C106.629 14.8714 106.942 14.795 107.168 14.6407C107.395 14.4872 107.509 14.2566 107.509 13.9488C107.509 13.6418 107.395 13.4111 107.168 13.2569ZM113.123 13.7525H113.062L112.311 15.8233H113.875L113.123 13.7525ZM85.3641 17.5605C85.7093 17.5605 86.0161 17.477 86.283 17.3102C86.5506 17.1434 86.7928 16.8833 87.009 16.53L88.5015 17.5114C88.1969 18.0484 87.7792 18.4753 87.2476 18.7921C86.7167 19.1097 86.0886 19.2681 85.3641 19.2681C84.5997 19.2681 83.9223 19.0999 83.3334 18.7627C82.7446 18.4262 82.2862 17.9502 81.9577 17.3347C81.6299 16.7199 81.4652 16.0133 81.4652 15.2149C81.4652 14.4297 81.6277 13.7364 81.9526 13.1342C82.2775 12.5328 82.7344 12.0666 83.3233 11.7357C83.9122 11.4055 84.5925 11.2401 85.3641 11.2401C86.0886 11.2401 86.7167 11.3992 87.2476 11.7161C87.7792 12.0336 88.1969 12.4606 88.5015 12.9968L87.009 13.9783C86.5898 13.2913 86.0415 12.9478 85.3641 12.9478C84.7281 12.9478 84.2422 13.149 83.9071 13.5514C83.5721 13.9537 83.4045 14.5082 83.4045 15.2149C83.4045 15.9411 83.5757 16.5138 83.9173 16.9324C84.2596 17.3516 84.7419 17.5605 85.3641 17.5605ZM75.7409 4.60568L75.8831 3.82755H64.1995L64.0421 4.6898H60.9091L61.5002 1.4511H68.68C68.6445 1.32492 68.614 1.19593 68.5879 1.06204C68.5611 0.929548 68.5306 0.799159 68.4958 0.672976L71.9276 0.105152L72.2264 1.4511H79.4063L78.8304 4.60568H75.7409ZM60.0976 3.53312C59.1693 4.72555 58.4143 5.64388 57.8326 6.28812L55.5568 4.6898C56.4046 3.77918 57.4178 2.55941 58.5956 1.03049L60.8656 2.54469C60.3166 3.24641 60.0606 3.57518 60.0976 3.53312ZM59.5913 6.66667L57.721 16.9197C59.9097 16.4501 61.8098 15.9075 63.4141 15.2892H58.1924L58.634 12.8707H66.7929L66.9924 11.7771H70.1472L69.9477 12.8707H78.0849L77.6432 15.2892H72.5956C73.8749 15.9068 75.5633 16.4746 77.6592 16.9926L76.0006 19.6425C74.4681 19.1378 73.17 18.6611 72.106 18.2124C71.0414 17.7645 70.0884 17.266 69.2457 16.7192L68.6619 19.9159H65.5071L66.0909 16.7192C65.0625 17.266 63.9246 17.7785 62.6772 18.2545C61.4298 18.7312 59.9685 19.2289 58.2924 19.7476L57.6608 17.2513L57.1821 19.8738H54.0056L54.1666 18.9905H45.1156L45.6218 16.2145H54.6728L55.0448 14.1746H46.7554L47.2543 11.4406H55.5438L55.9086 9.44269H47.3145L47.8207 6.66667H51.8676L52.9648 0.651945H56.1849L55.0876 6.66667H59.5913ZM47.6293 2.58675L50.3039 0.925342C50.5556 1.37469 50.8617 1.96355 51.2221 2.6919C51.5818 3.42166 51.8799 4.05258 52.117 4.58465L49.3445 6.18297C49.0638 5.49667 48.4923 4.29793 47.6293 2.58675ZM47.9781 3.65931L47.4407 6.60358H45.7001L45.4166 8.15983C46.0258 8.5531 46.8837 9.14196 47.9875 9.92639L45.6675 12.7445L44.7182 11.9874L43.2793 19.8738H40.255L41.4981 13.0599C40.8751 13.9299 40.1347 14.8475 39.2767 15.8149L39.2861 15.6537C39.1752 16.1101 39.0758 16.4956 38.9873 16.8034C38.8082 17.5471 38.5602 18.1115 38.2432 18.4963C37.9263 18.8819 37.4962 19.1553 36.9516 19.3165C36.4069 19.4777 35.6636 19.5584 34.7208 19.5584H24.2121C22.9356 19.5584 22.0646 19.285 21.5983 18.7382C21.1327 18.1914 21.0159 17.2808 21.2487 16.0042L22.7986 7.50789L21.5265 6.01472C24.4354 4.22082 26.6866 2.21591 28.2806 0L31.4826 0.694006C31.125 1.14336 30.9183 1.40273 30.8618 1.47213H38.0416L37.5738 4.03786L35.475 5.76236H39.5218L38.0909 13.6067H24.9496L24.6661 15.163C24.5892 15.5836 24.5718 15.8962 24.6146 16.0988C24.6574 16.3028 24.7843 16.443 24.9953 16.5195C25.2056 16.5973 25.5574 16.6351 26.0513 16.6351H34.6018C35.211 16.6351 35.6266 16.5615 35.8492 16.4143C36.0719 16.2671 36.2242 15.9699 36.3061 15.5205C36.3438 15.3102 36.4316 14.9106 36.5679 14.3218L36.705 13.6909L39.3652 14.333L39.5508 11.2093C40.6003 9.98949 41.6272 8.45426 42.6324 6.60358H40.7395L41.2769 3.65931H43.2133L43.75 0.715037H46.7742L46.2375 3.65931H47.9781ZM35.4097 10.8938L35.8238 8.6225H32.3645L31.9504 10.8938H35.4097ZM33.4016 4.24816H28.3539C27.8926 4.71083 27.3509 5.21556 26.7286 5.76236H31.3194L33.4016 4.24816ZM28.7521 10.8938L29.1662 8.6225H25.8591L25.445 10.8938H28.7521ZM18.7162 16.8875C18.532 17.897 18.2006 18.619 17.7226 19.0536C17.2447 19.4883 16.5122 19.7056 15.5259 19.7056H12.741L12.6307 16.9716H14.5236C14.9725 16.9716 15.2619 16.9373 15.391 16.8665C15.5201 16.7971 15.6136 16.6008 15.6731 16.2776L15.7725 15.7308H12.2043L11.5175 19.4953H8.42799L9.11479 15.7308H5.30729C4.99761 16.4746 4.61904 17.1791 4.17084 17.8444C3.72337 18.5103 3.15333 19.2289 2.46146 20L0 18.1073C0.737567 17.4069 1.296 16.769 1.67602 16.1935C2.05677 15.6193 2.35412 14.9814 2.56952 14.2797C2.78419 13.5794 3.00974 12.5839 3.24471 11.2934L3.83578 8.05468L2.21488 6.204C3.48767 5.34946 4.74233 4.37434 5.97959 3.28076C7.21612 2.18717 8.26481 1.10831 9.12639 0.042061L12.2855 0.736067C12.0549 1.04522 11.875 1.27655 11.7452 1.43007H18.9468L18.4827 3.97476L16.8342 5.25762H20.8375L18.7162 16.8875ZM16.2751 12.9758L16.4941 11.7771H12.9259L12.7069 12.9758H16.2751ZM6.29361 12.1136C6.22181 12.5068 6.16162 12.7943 6.11448 12.9758H9.61738L9.8364 11.7771H6.35526L6.29361 12.1136ZM6.82666 9.19033H10.3078L10.5457 7.88644H7.06454L6.82666 9.19033ZM9.41286 4.07992L8.19664 5.25762H12.5698L14.0906 4.07992H9.41286ZM13.6352 7.88644L13.3973 9.19033H16.9655L17.2034 7.88644H13.6352ZM73.1961 9.25342C75.6706 9.84227 77.1682 10.2208 77.6882 10.3891L76.2479 12.6814C74.1251 11.9951 71.9008 11.3431 69.5771 10.7256C67.1302 11.4974 63.8615 12.1213 59.7712 12.5973L59.3629 10.3049C61.6003 10.1234 63.5852 9.89905 65.3164 9.63197C64.528 9.42166 63.7361 9.23239 62.9398 9.06414L61.8976 8.81178C62.4386 8.39117 62.9971 7.91518 63.5729 7.3817H59.9177L60.3478 5.02629H65.9829L66.7748 4.14301L70.2661 4.2061L69.5293 5.02629H79.233L78.8029 7.3817H75.8222C75.0679 8.09674 74.1926 8.72135 73.1961 9.25342ZM67.1846 7.3817C67.0062 7.56467 66.8314 7.7259 66.6617 7.86541C66.8618 7.88013 67.9113 8.09043 69.8099 8.49632C70.6519 8.17455 71.3576 7.80231 71.9276 7.3817H67.1846Z" fill="#090909"/>
</svg>
